<mxfile host="app.diagrams.net" modified="2022-05-29T07:46:52.986Z" agent="5.0 (Windows NT 10.0; Win64; x64) AppleWebKit/537.36 (KHTML, like Gecko) Chrome/101.0.4951.67 Safari/537.36" etag="w7ihm6qoV-ZAxtUEfycO" version="18.1.3" type="github">
  <diagram id="C5RBs43oDa-KdzZeNtuy" name="Page-1">
    <mxGraphModel dx="1769" dy="582" grid="1" gridSize="10" guides="1" tooltips="1" connect="1" arrows="1" fold="1" page="1" pageScale="1" pageWidth="827" pageHeight="1169" math="0" shadow="0">
      <root>
        <mxCell id="WIyWlLk6GJQsqaUBKTNV-0" />
        <mxCell id="WIyWlLk6GJQsqaUBKTNV-1" parent="WIyWlLk6GJQsqaUBKTNV-0" />
        <mxCell id="JirO6FZ4X6iLIs8MiR3D-25" value="" style="rounded=1;whiteSpace=wrap;html=1;dashed=1;" vertex="1" parent="WIyWlLk6GJQsqaUBKTNV-1">
          <mxGeometry x="-110" y="90" width="420" height="250" as="geometry" />
        </mxCell>
        <mxCell id="JirO6FZ4X6iLIs8MiR3D-34" style="edgeStyle=orthogonalEdgeStyle;rounded=0;orthogonalLoop=1;jettySize=auto;html=1;exitX=1;exitY=0.5;exitDx=0;exitDy=0;" edge="1" parent="WIyWlLk6GJQsqaUBKTNV-1" source="WIyWlLk6GJQsqaUBKTNV-3" target="JirO6FZ4X6iLIs8MiR3D-18">
          <mxGeometry relative="1" as="geometry">
            <Array as="points">
              <mxPoint x="20" y="245" />
              <mxPoint x="20" y="263" />
            </Array>
          </mxGeometry>
        </mxCell>
        <mxCell id="WIyWlLk6GJQsqaUBKTNV-3" value="图像帧" style="rounded=1;whiteSpace=wrap;html=1;fontSize=12;glass=0;strokeWidth=1;shadow=0;" parent="WIyWlLk6GJQsqaUBKTNV-1" vertex="1">
          <mxGeometry x="-80" y="230" width="70" height="30" as="geometry" />
        </mxCell>
        <mxCell id="JirO6FZ4X6iLIs8MiR3D-8" style="edgeStyle=orthogonalEdgeStyle;rounded=0;orthogonalLoop=1;jettySize=auto;html=1;exitX=1;exitY=0.5;exitDx=0;exitDy=0;entryX=0;entryY=0.5;entryDx=0;entryDy=0;" edge="1" parent="WIyWlLk6GJQsqaUBKTNV-1" target="JirO6FZ4X6iLIs8MiR3D-7">
          <mxGeometry relative="1" as="geometry">
            <mxPoint x="250.00000000000023" y="252.5" as="sourcePoint" />
          </mxGeometry>
        </mxCell>
        <mxCell id="JirO6FZ4X6iLIs8MiR3D-9" value="多车的位置、速度" style="edgeLabel;html=1;align=center;verticalAlign=middle;resizable=0;points=[];" vertex="1" connectable="0" parent="JirO6FZ4X6iLIs8MiR3D-8">
          <mxGeometry x="-0.1429" y="-1" relative="1" as="geometry">
            <mxPoint x="13" y="-21" as="offset" />
          </mxGeometry>
        </mxCell>
        <mxCell id="JirO6FZ4X6iLIs8MiR3D-30" value="" style="rounded=1;whiteSpace=wrap;html=1;dashed=1;" vertex="1" parent="WIyWlLk6GJQsqaUBKTNV-1">
          <mxGeometry x="80" y="200" width="205" height="120" as="geometry" />
        </mxCell>
        <mxCell id="JirO6FZ4X6iLIs8MiR3D-35" style="edgeStyle=orthogonalEdgeStyle;rounded=0;orthogonalLoop=1;jettySize=auto;html=1;exitX=1;exitY=0.5;exitDx=0;exitDy=0;entryX=0;entryY=0.5;entryDx=0;entryDy=0;" edge="1" parent="WIyWlLk6GJQsqaUBKTNV-1" source="JirO6FZ4X6iLIs8MiR3D-4" target="JirO6FZ4X6iLIs8MiR3D-18">
          <mxGeometry relative="1" as="geometry">
            <Array as="points">
              <mxPoint x="20" y="280" />
              <mxPoint x="20" y="263" />
            </Array>
          </mxGeometry>
        </mxCell>
        <mxCell id="JirO6FZ4X6iLIs8MiR3D-4" value="图像帧" style="rounded=1;whiteSpace=wrap;html=1;fontSize=12;glass=0;strokeWidth=1;shadow=0;" vertex="1" parent="WIyWlLk6GJQsqaUBKTNV-1">
          <mxGeometry x="-80" y="265" width="70" height="30" as="geometry" />
        </mxCell>
        <mxCell id="JirO6FZ4X6iLIs8MiR3D-12" value="多车轨迹" style="edgeStyle=orthogonalEdgeStyle;rounded=0;orthogonalLoop=1;jettySize=auto;html=1;exitX=1;exitY=0.5;exitDx=0;exitDy=0;" edge="1" parent="WIyWlLk6GJQsqaUBKTNV-1" source="JirO6FZ4X6iLIs8MiR3D-7" target="JirO6FZ4X6iLIs8MiR3D-11">
          <mxGeometry x="0.1429" y="13" relative="1" as="geometry">
            <mxPoint y="1" as="offset" />
          </mxGeometry>
        </mxCell>
        <mxCell id="JirO6FZ4X6iLIs8MiR3D-7" value="&lt;span style=&quot;&quot;&gt;云端服务器&lt;/span&gt;" style="rounded=1;whiteSpace=wrap;html=1;" vertex="1" parent="WIyWlLk6GJQsqaUBKTNV-1">
          <mxGeometry x="430" y="222.5" width="120" height="60" as="geometry" />
        </mxCell>
        <mxCell id="JirO6FZ4X6iLIs8MiR3D-11" value="&lt;span style=&quot;&quot;&gt;车端控制器&lt;/span&gt;" style="rounded=1;whiteSpace=wrap;html=1;" vertex="1" parent="WIyWlLk6GJQsqaUBKTNV-1">
          <mxGeometry x="620" y="222.5" width="120" height="60" as="geometry" />
        </mxCell>
        <mxCell id="JirO6FZ4X6iLIs8MiR3D-15" value="&lt;span style=&quot;&quot;&gt;车端控制器&lt;/span&gt;" style="rounded=1;whiteSpace=wrap;html=1;" vertex="1" parent="WIyWlLk6GJQsqaUBKTNV-1">
          <mxGeometry x="630" y="232.5" width="120" height="60" as="geometry" />
        </mxCell>
        <mxCell id="JirO6FZ4X6iLIs8MiR3D-16" value="&lt;span style=&quot;&quot;&gt;车端控制器&lt;/span&gt;" style="rounded=1;whiteSpace=wrap;html=1;" vertex="1" parent="WIyWlLk6GJQsqaUBKTNV-1">
          <mxGeometry x="640" y="242.5" width="120" height="60" as="geometry" />
        </mxCell>
        <mxCell id="JirO6FZ4X6iLIs8MiR3D-33" value="视觉反馈" style="edgeStyle=orthogonalEdgeStyle;rounded=0;orthogonalLoop=1;jettySize=auto;html=1;exitX=1;exitY=0.5;exitDx=0;exitDy=0;entryX=0.5;entryY=1;entryDx=0;entryDy=0;" edge="1" parent="WIyWlLk6GJQsqaUBKTNV-1" source="JirO6FZ4X6iLIs8MiR3D-17" target="JirO6FZ4X6iLIs8MiR3D-32">
          <mxGeometry relative="1" as="geometry">
            <Array as="points">
              <mxPoint x="790" y="290" />
              <mxPoint x="790" y="380" />
              <mxPoint x="230" y="380" />
            </Array>
          </mxGeometry>
        </mxCell>
        <mxCell id="JirO6FZ4X6iLIs8MiR3D-17" value="&lt;span style=&quot;&quot;&gt;车端控制器&lt;/span&gt;" style="rounded=1;whiteSpace=wrap;html=1;" vertex="1" parent="WIyWlLk6GJQsqaUBKTNV-1">
          <mxGeometry x="650" y="260" width="120" height="60" as="geometry" />
        </mxCell>
        <mxCell id="JirO6FZ4X6iLIs8MiR3D-18" value="&lt;span style=&quot;&quot;&gt;图像处理&lt;/span&gt;" style="rounded=1;whiteSpace=wrap;html=1;" vertex="1" parent="WIyWlLk6GJQsqaUBKTNV-1">
          <mxGeometry x="140" y="232.5" width="120" height="60" as="geometry" />
        </mxCell>
        <mxCell id="JirO6FZ4X6iLIs8MiR3D-19" value="&lt;span style=&quot;&quot;&gt;图像处理&lt;/span&gt;" style="rounded=1;whiteSpace=wrap;html=1;" vertex="1" parent="WIyWlLk6GJQsqaUBKTNV-1">
          <mxGeometry x="150" y="242.5" width="120" height="60" as="geometry" />
        </mxCell>
        <mxCell id="JirO6FZ4X6iLIs8MiR3D-20" value="&lt;span style=&quot;&quot;&gt;图像处理&lt;/span&gt;" style="rounded=1;whiteSpace=wrap;html=1;" vertex="1" parent="WIyWlLk6GJQsqaUBKTNV-1">
          <mxGeometry x="160" y="252.5" width="120" height="60" as="geometry" />
        </mxCell>
        <mxCell id="JirO6FZ4X6iLIs8MiR3D-23" value="更新多车的位置、速度" style="edgeLabel;html=1;align=center;verticalAlign=middle;resizable=0;points=[];" vertex="1" connectable="0" parent="WIyWlLk6GJQsqaUBKTNV-1">
          <mxGeometry x="660" y="350" as="geometry" />
        </mxCell>
        <mxCell id="JirO6FZ4X6iLIs8MiR3D-24" value="UWB" style="rounded=1;whiteSpace=wrap;html=1;" vertex="1" parent="WIyWlLk6GJQsqaUBKTNV-1">
          <mxGeometry x="130" y="110" width="120" height="60" as="geometry" />
        </mxCell>
        <mxCell id="JirO6FZ4X6iLIs8MiR3D-26" value="定位融合" style="edgeLabel;html=1;align=center;verticalAlign=middle;resizable=0;points=[];" vertex="1" connectable="0" parent="WIyWlLk6GJQsqaUBKTNV-1">
          <mxGeometry x="-60" y="120" as="geometry" />
        </mxCell>
        <mxCell id="JirO6FZ4X6iLIs8MiR3D-31" value="图像拼接" style="edgeLabel;html=1;align=center;verticalAlign=middle;resizable=0;points=[];" vertex="1" connectable="0" parent="WIyWlLk6GJQsqaUBKTNV-1">
          <mxGeometry x="120" y="215" as="geometry">
            <mxPoint x="-4" y="4" as="offset" />
          </mxGeometry>
        </mxCell>
        <mxCell id="JirO6FZ4X6iLIs8MiR3D-32" value="&lt;span style=&quot;&quot;&gt;图像处理&lt;/span&gt;" style="rounded=1;whiteSpace=wrap;html=1;" vertex="1" parent="WIyWlLk6GJQsqaUBKTNV-1">
          <mxGeometry x="170" y="262.5" width="120" height="60" as="geometry" />
        </mxCell>
      </root>
    </mxGraphModel>
  </diagram>
</mxfile>
